HIERARCHY
ROOT Hips
{
	OFFSET -3.958830 18.904000 13.208200
	CHANNELS 6 Xposition Yposition Zposition Zrotation Yrotation Xrotation 
	JOINT LHipJoint
	{
		OFFSET 0.000000 0.000000 0.000000
		CHANNELS 3 Zrotation Yrotation Xrotation
		JOINT LeftUpLeg
		{
			OFFSET 1.800000 -1.400000 0.085000
			CHANNELS 3 Zrotation Yrotation Xrotation
			JOINT LeftLeg
			{
				OFFSET 2.215000 -6.000000 0.000000
				CHANNELS 3 Zrotation Yrotation Xrotation
				JOINT LeftFoot
				{
					OFFSET 2.500000 -6.900000 0.000000
					CHANNELS 3 Zrotation Yrotation Xrotation
					JOINT LeftToeBase
					{
						OFFSET 0.200000 -0.500000 1.950000
						CHANNELS 3 Zrotation Yrotation Xrotation
						End Site
						{
							OFFSET 0.000000 0.000000 0.000000
						}
					}
				}
			}
		}
	}
	JOINT RHipJoint
	{
		OFFSET 0.000000 0.000000 0.000000
		CHANNELS 3 Zrotation Yrotation Xrotation
		JOINT RightUpLeg
		{
			OFFSET -1.800000 -1.400000 0.085000
			CHANNELS 3 Zrotation Yrotation Xrotation
			JOINT RightLeg
			{
				OFFSET -2.215000 -6.000000 0.000000
				CHANNELS 3 Zrotation Yrotation Xrotation
				JOINT RightFoot
				{
					OFFSET -2.500000 -6.900000 0.000000
					CHANNELS 3 Zrotation Yrotation Xrotation
					JOINT RightToeBase
					{
						OFFSET -0.200000 -0.500000 1.950000
						CHANNELS 3 Zrotation Yrotation Xrotation
						End Site
						{
							OFFSET 0.000000 0.000000 0.000000
						}
					}
				}
			}
		}
	}
	JOINT LowerBack
	{
		OFFSET 0.000000 0.000000 0.000000
		CHANNELS 3 Zrotation Yrotation Xrotation
		JOINT Spine
		{
			OFFSET -0.087000 1.940000 -0.288900
			CHANNELS 3 Zrotation Yrotation Xrotation
			JOINT Spine1
			{
				OFFSET 0.000000 1.950000 0.060000
				CHANNELS 3 Zrotation Yrotation Xrotation
				JOINT Neck
				{
					OFFSET 0.000000 0.000000 0.000000
					CHANNELS 3 Zrotation Yrotation Xrotation
					JOINT Neck1
					{
						OFFSET 0.000000 1.600000 0.340000
						CHANNELS 3 Zrotation Yrotation Xrotation
						JOINT Head
						{
							OFFSET 0.000000 1.667000 -0.240000
							CHANNELS 3 Zrotation Yrotation Xrotation
							End Site
							{
								OFFSET 0.000000 0.000000 0.000000
							}
						}
					}
				}
				JOINT LeftShoulder
				{
					OFFSET 0.000000 0.000000 0.000000
					CHANNELS 3 Zrotation Yrotation Xrotation
					JOINT LeftArm
					{
						OFFSET 2.700000 1.550000 -0.730000
						CHANNELS 3 Zrotation Yrotation Xrotation
						JOINT LeftForeArm
						{
							OFFSET 5.450000 0.000000 0.000000
							CHANNELS 3 Zrotation Yrotation Xrotation
							JOINT LeftHand
							{
								OFFSET 3.450000 0.000000 0.000000
								CHANNELS 3 Zrotation Yrotation Xrotation
								JOINT LeftHandIndex1
								{
									OFFSET 0.750000 0.000000 0.000000
									CHANNELS 3 Zrotation Yrotation Xrotation
									End Site
									{
										OFFSET 0.000000 0.000000 0.000000
									}
								}
							}
						}
					}
				}
				JOINT RightShoulder
				{
					OFFSET 0.000000 0.000000 0.000000
					CHANNELS 3 Zrotation Yrotation Xrotation
					JOINT RightArm
					{
						OFFSET -2.700000 1.550000 -0.730000
						CHANNELS 3 Zrotation Yrotation Xrotation
						JOINT RightForeArm
						{
							OFFSET -5.450000 0.000000 0.000000
							CHANNELS 3 Zrotation Yrotation Xrotation
							JOINT RightHand
							{
								OFFSET -3.450000 0.000000 0.000000
								CHANNELS 3 Zrotation Yrotation Xrotation
								JOINT RightHandIndex1
								{
									OFFSET -0.750000 0.000000 0.000000
									CHANNELS 3 Zrotation Yrotation Xrotation
									End Site
									{
										OFFSET 0.000000 0.000000 0.000000
									}
								}
							}
						}
					}
				}
			}
		}
	}
}
MOTION
Frames: 12
Frame Time: 0.016667
2.478100 17.416810 -2.649790 -0.475775 -3.555711 9.463279 -14.890328 13.344040 3.063465 3.896160 -2.488247 -19.958585 -4.794303 5.036274 16.216985 -1.021872 4.340161 3.541380 0.264250 -0.493990 0.227250 18.383492 -11.279285 3.088202 -1.790090 0.267535 -5.894247 7.126138 -5.432122 9.231787 -0.408021 -4.001848 3.384229 -0.088650 0.783630 0.550920 -4.045439 -1.080196 -7.722719 13.714269 1.945034 11.728157 -7.162514 4.033288 -4.331466 3.673484 -2.164716 -8.725675 -5.179387 1.446921 34.495024 -10.210910 2.767880 -4.236430 -11.701343 3.331020 0.248964 -4.637024 6.651570 0.556556 11.413272 8.203253 -0.669193 -4.688079 2.245772 0.855640 0.546360 -0.216410 0.396160 3.512782 0.333865 5.624864 18.946423 -3.814755 -6.105874 -33.015035 9.907921 -2.061482 1.819924 -1.596717 -0.538320 0.428590 0.172490 -0.383300 
2.504770 17.390650 -2.692160 -0.490944 -4.593455 9.609244 -14.890711 13.493144 3.057646 4.667802 -2.455641 -20.259438 -4.125274 5.116314 17.517331 -0.949022 4.396458 3.505843 0.284690 -0.452060 0.212020 18.351234 -11.301578 3.042412 -2.258665 0.495754 -6.825260 6.944621 -5.485309 10.594493 -0.391569 -3.961644 3.397492 -0.089380 0.770720 0.562380 -3.973772 -1.276155 -7.722234 13.273668 1.326244 12.297658 -7.059917 3.464507 -5.399341 3.461415 -2.593261 -8.677652 -5.896420 2.484301 34.285917 -9.688250 3.588820 -3.688620 -11.487112 3.910606 0.258831 -4.300740 7.809753 0.503151 11.960409 5.653389 -0.729330 -4.615661 2.345737 0.822100 0.541370 -0.205020 0.420640 3.788890 0.049380 5.365007 19.072323 -3.767720 -6.139519 -33.872718 11.299015 -2.394729 1.826601 -1.641665 -0.493580 0.387730 0.140530 -0.356360 
2.533210 17.361420 -2.730890 -0.902293 -5.489268 9.480649 -14.884779 13.681905 3.026982 5.979225 -2.254837 -20.150424 -3.480828 5.152195 18.321907 -0.857243 4.399219 3.468566 0.343510 -0.366050 0.224380 18.324030 -11.305418 3.019887 -2.201716 0.637273 -7.328735 6.568137 -5.526101 12.107685 -0.411446 -3.928794 3.396936 -0.085930 0.701990 0.572710 -3.917385 -1.548564 -7.744304 13.537281 0.670331 13.162684 -7.057458 3.055997 -6.065990 3.431803 -3.010890 -8.969961 -6.827336 3.254966 34.787596 -9.007570 4.054870 -3.762320 -11.519384 3.939282 0.402610 -3.878765 9.033077 0.415969 11.958087 2.645987 -0.826568 -4.477479 2.482130 0.803690 0.493260 -0.160560 0.443970 3.973829 0.289380 5.553771 18.618930 -5.053578 -6.190599 -34.134828 12.684956 -2.599805 1.852879 -1.689564 -0.415650 0.317840 0.081050 -0.329820 
2.555000 17.323440 -2.766370 -1.292882 -6.562021 9.236980 -14.898667 13.850828 2.961931 7.101665 -1.992670 -19.437390 -2.729504 5.090213 18.579109 -0.822534 4.407257 3.449767 0.379040 -0.324380 0.268160 18.286483 -11.311962 2.997837 -2.132739 0.808941 -7.818050 6.459763 -5.685014 13.864285 -0.432218 -3.945050 3.376795 -0.083590 0.647240 0.577130 -3.812560 -1.766256 -7.737968 13.239340 0.352429 13.654878 -6.643148 2.779918 -5.887673 3.642461 -2.794803 -9.132243 -6.594919 3.373978 35.293753 -9.663200 4.786820 -4.234940 -11.664007 3.622650 0.524844 -3.627867 9.550599 0.324216 12.276872 0.335565 -0.891184 -4.393190 2.540339 0.812490 0.463910 -0.121240 0.446470 3.835522 0.365758 5.657217 18.897338 -5.918996 -6.451948 -34.748717 13.797554 -2.879774 1.862392 -1.710350 -0.385480 0.284870 0.039180 -0.334440 
2.589630 17.273880 -2.798640 -2.466235 -7.514524 9.290953 -14.858274 13.972928 2.859843 8.590376 -1.688173 -18.698854 -1.668554 4.857473 18.274827 -0.831867 4.388161 3.453469 0.394390 -0.306070 0.290290 18.317173 -11.315488 3.019317 -1.010449 1.094048 -8.636076 5.906458 -5.711980 15.787404 -0.439230 -3.933986 3.372371 -0.073790 0.633410 0.576530 -3.887901 -1.859913 -7.705714 14.871389 -0.277175 14.159714 -7.353385 2.528686 -6.207903 3.807443 -2.571719 -8.949099 -6.135566 3.545679 35.028980 -9.566500 5.137790 -5.085400 -12.111801 3.602891 0.221145 -1.948777 9.301528 0.506119 11.506932 -1.591956 -1.012056 -4.350783 2.555354 0.821930 0.455730 -0.106120 0.444770 3.821045 -0.036390 5.637163 18.865399 -6.741278 -6.471571 -34.875801 14.487132 -2.936952 1.855943 -1.705245 -0.383690 0.289200 0.027910 -0.341460 
2.629680 17.223780 -2.827440 -3.113668 -8.367478 9.224420 -14.873529 14.148241 2.832056 9.655873 -1.488655 -17.846093 -1.124396 4.728080 17.711889 -0.842842 4.367128 3.461758 0.433360 -0.264500 0.324280 18.279237 -11.260948 3.021824 -0.526273 1.514338 -9.668454 5.757128 -5.876438 18.214279 -0.461956 -3.963380 3.354777 -0.051680 0.601390 0.550550 -3.784714 -2.182182 -7.742508 15.130384 -0.752928 15.212777 -6.907493 2.375560 -7.622539 3.826598 -2.788912 -8.734673 -6.706652 3.853395 35.470107 -9.028820 5.076010 -6.384430 -11.816760 4.355427 -0.422040 -1.867711 7.793683 0.415995 11.372259 -3.077984 -1.067426 -4.284625 2.543549 0.860820 0.415670 -0.079630 0.455570 3.579466 -0.617289 5.596537 18.533979 -7.586554 -6.377337 -35.237678 15.392411 -2.962057 1.855074 -1.692339 -0.392810 0.309100 -0.003280 -0.351170 
2.667520 17.162660 -2.851920 -4.130727 -9.134048 9.454047 -14.871213 14.235978 2.796935 11.118763 -1.327801 -17.201577 -1.034836 4.750423 17.177985 -0.847429 4.435802 3.440897 0.456690 -0.238730 0.342360 18.281477 -11.171952 3.036039 0.278136 2.123923 -11.048889 5.709272 -6.154968 21.214502 -0.495015 -4.106902 3.283993 -0.031890 0.603480 0.555080 -3.774510 -2.407508 -7.744174 16.212077 -1.485994 15.731399 -6.972488 1.966346 -8.938881 3.878344 -2.958570 -8.153356 -6.953268 4.243140 34.991660 -8.883460 5.329630 -7.097140 -11.408639 5.537998 -1.320004 -1.624306 5.608407 0.389510 10.985413 -3.982592 -1.123377 -4.274269 2.546794 0.872230 0.412920 -0.069750 0.466050 3.037690 -1.845841 5.281730 18.642940 -7.794106 -6.255056 -35.802104 17.493554 -3.318284 1.834612 -1.707241 -0.398070 0.317780 -0.017860 -0.351100 
2.703470 17.096410 -2.878020 -4.760875 -10.094145 9.566954 -14.896818 14.310089 2.788537 12.233711 -1.234100 -16.639012 -1.358568 4.967241 17.210538 -0.823438 4.565706 3.383020 0.472680 -0.211540 0.340340 18.256578 -11.063021 3.047951 0.494114 2.827392 -12.643097 5.945427 -6.584809 24.347879 -0.533753 -4.332906 3.198618 -0.018150 0.598040 0.563010 -3.683253 -2.659580 -7.771392 16.258345 -1.989518 16.311248 -6.575939 1.625686 -9.897331 4.014260 -2.988698 -7.731082 -6.961429 4.719139 34.642397 -8.820820 5.829860 -7.534020 -11.334911 6.365457 -1.918129 -2.325310 3.899589 0.251906 13.489318 -4.344114 -1.109784 -4.293284 2.570344 0.865650 0.416990 -0.063110 0.474900 2.804047 -2.756907 4.993392 18.743756 -7.982221 -6.236291 -36.453400 19.448222 -3.718338 1.808267 -1.725430 -0.385930 0.310970 -0.024820 -0.349010 
2.742830 17.034120 -2.921490 -5.495993 -11.090438 9.269728 -14.937731 14.377115 2.769196 13.393228 -1.140319 -16.059519 -1.775779 5.297316 17.744245 -0.753755 4.704436 3.307779 0.543980 -0.113910 0.391220 18.225003 -10.903253 3.082845 0.402408 3.745718 -14.498174 6.629829 -7.378728 28.549228 -0.642787 -4.772897 3.016494 0.018180 0.534560 0.571150 -3.566550 -2.972332 -7.810686 16.350815 -2.502493 17.374081 -5.920727 1.386800 -9.965975 4.189141 -3.092905 -7.599286 -7.159294 5.105137 34.078304 -9.133460 6.528110 -8.471520 -11.763375 6.219757 -2.198060 -2.311706 2.191870 0.134425 14.426123 -3.860759 -1.066208 -4.243343 2.630316 0.853950 0.386040 -0.016770 0.495950 3.080141 -2.682002 4.976388 18.218071 -8.697411 -6.244716 -37.261928 20.444376 -4.056135 1.828571 -1.784669 -0.338430 0.267260 -0.094370 -0.339510 
2.780820 16.980580 -2.971870 -5.977790 -12.813088 8.682675 -14.974170 14.411622 2.742982 14.113415 -1.039092 -15.213266 -2.476120 5.761063 18.745051 -0.652632 4.883125 3.200443 0.641690 0.039730 0.410900 18.198158 -10.757961 3.140649 -0.433230 4.839384 -16.788397 7.174764 -8.403598 33.549628 -0.819657 -5.438576 2.751397 0.067140 0.470590 0.629850 -3.451067 -3.190800 -7.860559 15.816770 -2.876089 18.851272 -5.340786 1.139494 -10.016719 4.221594 -3.045317 -7.335136 -7.021487 5.690607 33.751865 -9.148230 7.214410 -10.099830 -12.037413 6.067694 -2.426671 -1.689115 0.556997 0.093389 15.013813 -3.291258 -1.018661 -4.192381 2.743086 0.831820 0.362150 0.061830 0.542820 3.464647 -2.685255 4.673627 17.823380 -7.884765 -6.147002 -37.848364 20.946108 -4.365665 1.841593 -1.858796 -0.241350 0.196640 -0.166810 -0.297700 
2.824770 16.931380 -3.024750 -6.379249 -15.165302 7.943303 -14.984232 14.344618 2.679397 14.554670 -0.949056 -14.057640 -3.404891 6.327039 19.753961 -0.571322 5.108709 3.088763 0.742590 0.178630 0.475280 18.215438 -10.611071 3.235559 -2.147648 6.019354 -19.492926 8.212805 -9.832742 38.692974 -1.028776 -6.287055 2.425146 0.125130 0.405070 0.664580 -3.444882 -3.230280 -7.876398 15.446108 -3.422160 19.967578 -4.980819 0.452563 -8.657252 3.956700 -3.165822 -7.161485 -7.068336 6.970071 33.328735 -9.257040 8.537230 -11.836810 -11.586526 5.513314 -2.083797 -1.237352 -0.648013 0.134451 12.999533 0.176408 -0.922600 -4.172950 2.789413 0.818640 0.337880 0.128290 0.570270 3.604316 -2.378895 4.030020 18.159601 -4.965145 -6.288813 -38.931021 21.303784 -5.056385 1.845754 -1.916371 -0.173420 0.151380 -0.239720 -0.283130 
2.871080 16.891520 -3.075670 -6.217756 -17.247065 7.012821 -15.054614 14.366279 2.638154 14.104417 -0.999171 -13.449230 -3.911407 6.815282 21.352249 -0.513057 5.337743 2.993226 0.789450 0.240220 0.507590 18.173620 -10.364103 3.376915 -4.252481 7.086009 -22.679992 8.798434 -11.262630 43.811223 -1.227189 -7.162964 2.104730 0.149010 0.368730 0.669870 -3.270224 -3.601558 -7.951231 13.870012 -3.829504 21.894747 -3.734669 -0.072173 -8.037753 3.706614 -3.798952 -7.430269 -8.243083 8.194907 32.809565 -8.949850 9.224340 -13.080990 -11.267551 4.815163 -1.524701 -2.411789 -1.228226 0.100665 12.824096 2.893273 -0.802461 -4.154736 2.805166 0.830590 0.307570 0.164870 0.579730 4.096214 -1.266157 3.869720 17.314866 -3.641895 -6.431653 -39.931111 22.022342 -5.641184 1.841581 -1.928448 -0.149090 0.138790 -0.272520 -0.277840 
